<svg width="94" height="94" viewBox="0 0 94 94" fill="none" xmlns="http://www.w3.org/2000/svg">
<path fill-rule="evenodd" clip-rule="evenodd" d="M42.1132 83.1409C43.899 83.4143 45.7279 83.556 47.5903 83.556C67.4188 83.556 83.493 67.4818 83.493 47.6534C83.493 27.8247 67.4188 11.7505 47.5903 11.7505C46.26 11.7505 44.9464 11.8228 43.6537 11.9638C53.4897 19.4157 59.993 32.3244 59.993 47.0005C59.993 62.4297 52.8051 75.9055 42.1132 83.1409ZM46.9375 94.0005C72.8949 94.0005 93.9375 72.9579 93.9375 47.0005C93.9375 21.0431 72.8949 0.000488281 46.9375 0.000488281C20.9801 0.000488281 -0.0625 21.0431 -0.0625 47.0005C-0.0625 72.9579 20.9801 94.0005 46.9375 94.0005Z" fill="url(#paint0_linear_1678_6628)"/>
<defs>
<linearGradient id="paint0_linear_1678_6628" x1="-9.47087" y1="7.04935" x2="61.065" y2="117.51" gradientUnits="userSpaceOnUse">
<stop stop-color="white"/>
<stop offset="1" stop-color="white" stop-opacity="0"/>
</linearGradient>
</defs>
</svg>
