<svg width="88" height="94" viewBox="0 0 88 94" fill="none" xmlns="http://www.w3.org/2000/svg">
<path fill-rule="evenodd" clip-rule="evenodd" d="M13.1991 7.81429C14.3367 3.32282 18.4058 -0.000488281 23.2508 -0.000488281C26.885 -0.000488281 30.0827 1.86936 31.934 4.69951H34.9657C36.8492 2.76656 39.4807 1.56618 42.3927 1.56618C46.6619 1.56618 50.3287 4.14656 51.9182 7.83285H54.4564C56.0469 6.83994 57.9262 6.26617 59.9393 6.26617C64.2087 6.26617 67.8753 8.84657 69.4648 12.5329H76.3671C76.426 12.5329 76.4812 12.5487 76.5288 12.5764C76.844 12.5476 77.1633 12.5329 77.4859 12.5329C83.2123 12.5329 87.8543 17.175 87.8543 22.9014V53.9919L87.8545 54.0495L87.8543 54.1072V54.555C87.8543 54.7446 87.8492 54.9335 87.8389 55.1215C87.2151 76.6898 67.8211 93.9995 43.9877 93.9995C19.7609 93.9995 0.121094 76.1133 0.121094 54.0495C0.121094 43.3994 4.69715 33.7226 12.1563 26.5609C12.1377 36.9437 12.3131 47.6777 13.1215 47.4936C15.2861 47.0001 13.5949 14.8411 13.1991 7.81429Z" fill="url(#paint0_linear_1678_9730)"/>
<defs>
<linearGradient id="paint0_linear_1678_9730" x1="-8.66006" y1="7.04837" x2="63.8083" y2="112.969" gradientUnits="userSpaceOnUse">
<stop stop-color="white"/>
<stop offset="1" stop-color="white" stop-opacity="0"/>
</linearGradient>
</defs>
</svg>
